#N canvas -8 -8 1280 637 10;
#N canvas 0 22 450 300 (subpatch) 0;
#X array array_notes 32 float 3;
#A 0 0 0.0314961 0.80315 0.440945 0.771654 0.858268 0.417323 0.527559
0.976378 0.173228 0.0393701 0.0944882 0.00787402 0.11811 0.716535 0.653543
0.110236 0.456693 0.314961 0.590551 0.944882 0.535433 0.283465 0.480315
0.929134 0.125984 0.15748 0.409449 0.448819 0.409449 0.850394 0;
#X coords 0 0 32 1 480 140 1 0 1;
#X restore 25 368 graph;
#X obj 464 -439 f;
#X obj 502 -439 + 1;
#X obj 491 -368 sel 1;
#X obj 34 1196 osc~;
#X obj 34 1247 dac~;
#X obj 506 -415 r length;
#X obj 115 -439 s resolution;
#X obj 219 -463 metro;
#X obj 20 -485 loadbang;
#X obj 945 -29 sel 1;
#X obj 945 0 random;
#X obj 985 52 /;
#X obj 1000 0 r resolution;
#X msg 464 -463 0;
#X obj 794 -428 s bela_setDigital;
#X obj 794 -485 loadbang;
#X obj 794 -323 s bela_setDigital;
#X obj 794 -369 loadbang;
#X msg 794 -346 in 25 \, in 26;
#X text 791 -390 Initialise the buttons;
#X obj 67 -189 buttons, f 21;
#X msg 794 -462 out 17 ~ \, out 18 ~ \, out 21 ~ \, out 13 ~ \, out
14 ~ \, out 11 ~ \, out 12 ~ \, out 15 ~ \, out 16 ~ \, out 19 ~,
f 79;
#X obj 532 328 led-showstep, f 38;
#X obj 642 376 tgl 15 0 empty empty empty 17 7 0 10 -262144 -1 -1 0
1;
#X obj 667 376 tgl 15 0 empty empty empty 17 7 0 10 -262144 -1 -1 1
1;
#X obj 692 376 tgl 15 0 empty empty empty 17 7 0 10 -262144 -1 -1 0
1;
#X obj 717 376 tgl 15 0 empty empty empty 17 7 0 10 -262144 -1 -1 0
1;
#X obj 742 376 tgl 15 0 empty empty empty 17 7 0 10 -262144 -1 -1 0
1;
#X obj 767 376 tgl 15 0 empty empty empty 17 7 0 10 -262144 -1 -1 0
1;
#X obj 792 376 tgl 15 0 empty empty empty 17 7 0 10 -262144 -1 -1 0
1;
#X obj 817 376 tgl 15 0 empty empty empty 17 7 0 10 -262144 -1 -1 0
1;
#X obj 842 376 tgl 15 0 empty empty empty 17 7 0 10 -262144 -1 -1 0
1;
#X obj 867 376 tgl 15 0 empty empty empty 17 7 0 10 -262144 -1 -1 0
1;
#N canvas 0 50 450 250 (subpatch) 0;
#X array array_triggers 32 float 3;
#A 0 16 16 4 16 8 16 8 16 4 8 8 16 8 8 2 0.914286 0.914286 0.914275
1.14285 1.37143 1.37143 1.37143 1.37143 1 0 1 2 1 2.51429 4 0 0;
#X coords 0 16 32 0 480 35 1 0 0;
#X restore 25 527 graph;
#X obj 947 148 tabwrite array_notes;
#X obj 945 -55 <;
#X obj 1086 148 tabwrite array_triggers;
#X obj 1084 0 random 100;
#X obj 1084 28 moses 50;
#X msg 1084 56 0;
#X msg 1129 52 1;
#N canvas 0 50 450 250 (subpatch) 0;
#X array array_envelope 192 float 1;
#A 0 0 0 0 0 0 0 0 0 0 0 0 0 0 0 0 0 0 0 0 0 0 0 0 0 0 0 0 0 0 0 0
0 0 0 0 0 0 0 0 0 0 0 0 0 0 0 0 0 0 0 0 0 0 0 0 0 0 0 0 0 0 0 0 0 0
0 0 0 0 0 0 0 0 0 0 0 0 0 0 0 0 0 0 0 0 0 0 0 0 0 0 0 0 0 0 0 0 0 0
0 0 0 0 0 0 0 0 0 0 0 0 0 0 0 0 0 0 0 0 0 0 0 0 0 0 0 0 0 0 0 0 0 0
0 0 0 0 0 0 0 0 0 0 0 0 0 0 0 0 0 0 0 0 0 0 0 0 0 0 0 0 0 0 0 0 0 0
0 0 0 0 0 0 0 0 0 0 0 0 0 0 0 0 0 0 0 0 0 0 0 0 0;
#X coords 0 1 191 -0.1 200 140 1 0 0;
#X restore 533 422 graph;
#X obj 574 -163 tabread array_triggers;
#X obj 34 1221 *~;
#X obj 1158 -22 r chance_trigger;
#X msg 115 -463 127;
#X text 430 -215 envelope;
#X obj 73 1197 r~ envelope;
#X text 217 -508 send metro;
#X obj 1129 126 rand.list;
#X obj 1129 80 t b b;
#X obj 219 -439 s metro_notes;
#X obj 355 -445 r metro_notes;
#X obj 219 -485 r speed_notes;
#X obj 355 -423 f;
#X obj 393 -423 + 1;
#X obj 355 -375 sel 0;
#X obj 355 -399 mod 16;
#X obj 449 -314 f;
#X obj 441 -337 t b;
#X obj 491 -391 >=;
#X obj 616 -142 r speed_notes;
#X obj 945 -81 random 100;
#X obj 449 -291 s counter_in;
#X obj 928 -178 r counter_in;
#X obj 491 -337 s reset_counter_in;
#X obj 464 -485 r reset_counter_in;
#X obj 25 299 r counter_in;
#X obj 945 -108 t b b;
#X obj 947 126 f;
#X obj 1086 126 f;
#X obj 928 -150 t f b f f;
#X obj 863 -108 t f b b;
#X obj 764 53 s counter_out;
#X obj 886 0 r write;
#X obj 853 52 spigot;
#X obj 902 52 spigot;
#X text 926 -203 new notes and triggers;
#X obj 747 230 r counter_out;
#X obj 1042 -104 r chance_change;
#X obj 602 -485 loadbang;
#X obj 602 -438 s bela_setDigital @hv_param;
#X text 787 -508 Initialise digital signals out for LED;
#X obj 20 -439 s speed_notes;
#X msg 20 -463 48;
#X text 34 1124 audio out;
#X obj 115 -485 loadbang;
#X text 13 -508 Default speed;
#X text 105 -508 Note resolution;
#X text 600 -508 Init last channel digital in;
#X text 16 -547 --------------------- INIT ---------------------;
#X text 33 -242 --------------------- PROC ---------------------;
#X text 26 232 --------------------- VISUAL ---------------------;
#X text 26 573 --------------------- INPUT ---------------------;
#X text 25 1097 --------------------- OUTPUT ---------------------
;
#X text 324 -508 send counters;
#X obj 73 -118 t b b;
#X obj 73 -95 realtime;
#X obj 19 142 s speed_notes;
#X obj 19 119 / 16;
#X obj 34 -50 spigot 1;
#X floatatom 19 97 5 0 0 0 - - -;
#X obj 47 -143 bng 15 250 50 0 empty empty empty 17 7 0 10 -262144
-1 -1;
#X obj 79 -73 > 48;
#X obj 67 -166 sel 1;
#X obj 34 -28 min 4800;
#X obj 19 26 f;
#X obj 19 51 +;
#X obj 19 75 / 2;
#X obj 34 -4 t f b f;
#X text 24 -214 Ping average over last 2 differences;
#X obj 772 328 led-showstep_inv, f 38;
#X obj 692 230 r write;
#X obj 747 299 route 0 1;
#X obj 747 255 bng 15 250 50 0 empty empty empty 17 7 0 10 -262144
-1 -1;
#X obj 853 -29 spigot;
#X obj 902 -29 spigot;
#X obj 385 1173 tabread array_notes;
#X obj 385 1150 r counter_out;
#X text 385 1124 pitch CV out;
#X obj 385 1220 dac~ 3;
#X text 624 1124 trigger out;
#X obj 624 1197 1;
#X obj 662 1197 0;
#X text 722 1124 envelope out;
#X obj 722 1150 r~ envelope;
#X obj 624 1220 dac~ 5;
#X obj 722 1220 dac~ 6;
#X obj 355 -350 s tempo;
#X obj 524 1197 1;
#X obj 562 1197 0;
#X text 524 1124 tempo out;
#X obj 524 1150 r tempo;
#X obj 524 1220 dac~ 4;
#X obj 562 1173 del 25;
#X obj 662 1173 del 25;
#X obj 624 1150 r trigger;
#X obj 747 276 pack \$1 \$2;
#X obj 1158 0 * 100;
#X obj 1042 -82 * 100;
#X obj 334 -327 s counter_trig;
#X obj 385 1197 change;
#X obj 232 -118 sel 1;
#X obj 190 -91 realtime;
#X obj 190 -118 sel 0;
#X obj 190 -142 t f f;
#X obj 190 -14 s reset_cal;
#X obj 190 -39 sel 1;
#X obj 190 -67 > 1000;
#X obj 149 -39 sel 0;
#X obj 149 6 tgl 15 0 empty empty empty 17 7 0 10 -262144 -1 -1 0 1
;
#X obj 178 29 s write;
#X obj 149 53 print write toggle:;
#X text 172 5 Toggle write;
#X text 217 -186 long press = reset scaling;
#X text 211 -170 short press = toggle write;
#X msg 747 535 \; array_envelope const 0;
#X obj 747 513 r trigger;
#X obj 25 330 hradio 15 1 0 32 empty empty empty 0 -8 0 10 -262144
-1 -1 2;
#X obj 574 -184 r counter_out;
#X obj 568 122 s~ envelope;
#X floatatom 569 27 5 0 0 0 - - -;
#X floatatom 620 27 5 0 0 0 - - -;
#X obj 569 -1 *;
#X obj 620 -1 *;
#X obj 635 -22 expr 1 - $f1;
#X obj 635 -43 r shape;
#X msg 640 -76 \; array_envelope resize \$1;
#X msg 746 476 \; array_envelope xticks 0 10 50;
#X obj 321 64 loadbang;
#X obj 321 85 metro 1;
#X obj 321 106 t b b;
#X obj 348 149 snapshot~;
#X obj 348 180 tabwrite array_envelope;
#X obj 429 148 f;
#X obj 468 148 + 1;
#X obj 429 28 0;
#X obj 429 1 t b b;
#X obj 456 28 s trigger;
#X obj 429 -183 r counter_trig;
#X obj 429 -73 mod;
#X obj 429 -49 sel 0;
#X obj 601 -120 *;
#X obj 601 -98 t f f f;
#X obj 574 -142 t f f;
#X obj 197 1267 dac~;
#X obj 197 1241 *~;
#X obj 252 1216 r~ envelope;
#X text 197 1124 sub saw;
#X obj 197 1216 phasor~;
#X obj 100 1356 loadbang;
#X obj 100 1401 snapshot~;
#X obj 100 1377 metro 50;
#X obj 100 1481 calrange;
#X obj 163 1480 r reset_cal;
#X obj 100 1505 expr int($f1 + 0.5);
#X obj 115 1427 loadbang;
#X floatatom 96 1049 5 0 0 0 - - -;
#X msg 359 993 0 2 4 5 7 9 11;
#X msg 484 993 0 2 3 5 7 8 10;
#X msg 610 993 0 4 7;
#X msg 723 993 0 3 7;
#X text 357 930 Major scale;
#X text 483 930 Minor scale;
#X text 608 930 Major triad;
#X text 719 930 Minor triad;
#X text 146 1049 Output;
#X msg 828 993 0 2 4 7 9;
#X msg 956 993 0 3 5 7 10;
#X obj 96 1028 mscale;
#X obj 96 908 tabread array_notes;
#X obj 96 885 r counter_out;
#X obj 42 1049 s pitch;
#X obj 34 1154 r pitch;
#X obj 197 1155 r pitch;
#X obj 34 1175 mtof;
#X obj 197 1175 mtof;
#X obj 117 927 r range;
#X obj 696 738 calrange;
#X obj 696 764 expr int($f1 + 0.5);
#X obj 726 685 loadbang;
#X text 852 606 range;
#X text 698 606 offset;
#X obj 696 813 print Input 5 (offset);
#X obj 136 948 r offset;
#X obj 359 972 sel 1;
#X obj 484 972 sel 2;
#X obj 610 972 sel 3;
#X obj 723 972 sel 4;
#X obj 828 972 sel 5;
#X obj 956 972 sel 6;
#X text 827 930 Major pentatonic;
#X text 954 930 Minor pentatonic;
#X obj 733 789 s offset;
#X obj 96 972 +;
#X obj 96 948 *;
#X obj 246 -36 bng 15 250 50 0 empty empty empty 17 7 0 10 -262144
-1 -1;
#X msg 152 1452 11;
#X msg 115 1452 0;
#X obj 100 1530 s root;
#X obj 62 1555 print Input 8 (root);
#X obj 197 1196 - 12;
#X obj 20 -385 loadbang;
#X obj 20 -333 s manual;
#X msg 55 -360 0;
#X msg 20 -359 1;
#X obj 26 1364 vsl 15 128 0 1 0 0 empty empty empty 0 -9 0 10 -262144
-1 -1 0 1;
#X obj 67 1456 switch;
#X text 15 -406 Switch to manual input for dev;
#X obj 318 -485 loadbang;
#X msg 318 -463 0;
#X msg 1180 104 list 16 16 16 16 16 16 16 16 8 8 8 8 4 4;
#X text 21 852 --------------------- QUANTIZATION ---------------------
;
#X obj 569 99 vline~;
#X obj 569 50 pack f f;
#X msg 569 75 1 \$1 \, 0 \$2 \$1;
#X msg 726 710 1;
#X text 18 1297 --------------------- TRASH ---------------------;
#X msg 124 972 0;
#X obj 359 952 r scale;
#X obj 484 952 r scale;
#X obj 610 952 r scale;
#X obj 723 952 r scale;
#X obj 828 952 r scale;
#X obj 956 952 r scale;
#X obj 828 1014 s scale_list;
#X obj 956 1014 s scale_list;
#X obj 723 1014 s scale_list;
#X obj 610 1014 s scale_list;
#X obj 359 1014 s scale_list;
#X obj 484 1014 s scale_list;
#X obj 129 1002 r scale_list;
#X msg 763 710 64;
#X obj 699 634 hsl 128 15 0 127 0 0 empty empty empty -2 -8 0 10 -262144
-1 -1 0 1;
#X obj 855 738 calrange;
#X obj 855 764 expr int($f1 + 0.5);
#X obj 885 685 loadbang;
#X msg 885 710 1;
#X obj 858 634 hsl 128 15 0 127 0 0 empty empty empty -2 -8 0 10 -262144
-1 -1 0 1;
#X msg 922 710 48;
#X obj 892 789 s range;
#X obj 871 659 adc~ 8;
#X obj 1019 738 calrange;
#X obj 1049 685 loadbang;
#X obj 1022 634 hsl 128 15 0 127 0 0 empty empty empty -2 -8 0 10 -262144
-1 -1 0 1;
#X text 1012 606 Ratio A/D envelope;
#X msg 1049 710 0;
#X msg 1086 710 1;
#X obj 1035 659 adc~ 9;
#X obj 530 738 calrange;
#X obj 560 685 loadbang;
#X obj 533 634 hsl 128 15 0 127 0 0 empty empty empty -2 -8 0 10 -262144
-1 -1 0 1;
#X msg 560 710 0;
#X msg 597 710 1;
#X text 529 606 % chance trigger;
#X obj 530 813 print Input 4 (%trigger);
#X obj 546 659 adc~ 6;
#X obj 567 789 s chance_trigger;
#X obj 357 738 calrange;
#X obj 387 685 loadbang;
#X obj 360 634 hsl 128 15 0 127 0 0 empty empty empty -2 -8 0 10 -262144
-1 -1 0 1;
#X msg 387 710 0;
#X msg 424 710 1;
#X obj 357 813 print Input 3 (%trigger);
#X obj 394 789 s chance_change;
#X obj 373 659 adc~ 5;
#X text 356 606 % chance change;
#X obj 198 738 calrange;
#X obj 198 764 expr int($f1 + 0.5);
#X obj 228 685 loadbang;
#X msg 228 710 1;
#X obj 201 634 hsl 128 15 0 127 0 0 empty empty empty -2 -8 0 10 -262144
-1 -1 0 1;
#X text 195 606 scale;
#X msg 265 710 6;
#X obj 198 813 print Input 2 (scale);
#X obj 235 789 s scale;
#X obj 214 659 adc~ 4;
#X obj 33 738 calrange;
#X obj 33 764 expr int($f1 + 0.5);
#X obj 63 685 loadbang;
#X msg 63 710 1;
#X obj 36 634 hsl 128 15 0 127 0 0 empty empty empty -2 -8 0 10 -262144
-1 -1 0 1;
#X obj 49 659 adc~ 3;
#X obj 33 813 print Input 1 (length);
#X text 30 606 length;
#X msg 100 710 32;
#X obj 70 789 s length;
#X obj 1056 789 s shape;
#X obj 1019 813 print Input 7 (envelope shape);
#X obj 631 -381 loadbang;
#X obj 631 -333 s length;
#X msg 631 -357 8;
#X obj 1039 -388 adc~ 7;
#X obj 991 -387 adc~ 6;
#X obj 1084 -388 adc~ 8;
#X obj 1132 -389 adc~ 9;
#X obj 1003 -337 dac~ 27 28 29 30;
#X obj 855 813 print Input 8 (range);
#X text 684 -468 11 12 23 24;
#X obj 73 -143 r bela_digitalIn23;
#X msg 602 -462 in 23;
#X obj 712 659 adc~ 7;
#X connect 1 0 2 0;
#X connect 1 0 59 1;
#X connect 1 0 61 0;
#X connect 2 0 1 1;
#X connect 3 0 66 0;
#X connect 3 1 60 0;
#X connect 4 0 44 0;
#X connect 6 0 61 1;
#X connect 8 0 52 0;
#X connect 9 0 85 0;
#X connect 10 0 11 0;
#X connect 10 0 38 0;
#X connect 11 0 12 0;
#X connect 12 0 70 1;
#X connect 13 0 11 1;
#X connect 13 0 12 1;
#X connect 14 0 1 0;
#X connect 16 0 22 0;
#X connect 18 0 19 0;
#X connect 19 0 17 0;
#X connect 21 0 105 0;
#X connect 21 1 146 0;
#X connect 22 0 15 0;
#X connect 23 0 24 0;
#X connect 23 1 25 0;
#X connect 23 2 26 0;
#X connect 23 3 27 0;
#X connect 23 4 28 0;
#X connect 23 5 29 0;
#X connect 23 6 30 0;
#X connect 23 7 31 0;
#X connect 23 8 32 0;
#X connect 23 9 33 0;
#X connect 36 0 10 0;
#X connect 36 0 117 1;
#X connect 36 0 116 1;
#X connect 38 0 39 0;
#X connect 39 0 41 0;
#X connect 39 1 40 0;
#X connect 40 0 71 1;
#X connect 41 0 51 0;
#X connect 43 0 185 0;
#X connect 44 0 5 0;
#X connect 45 0 139 0;
#X connect 46 0 7 0;
#X connect 48 0 44 1;
#X connect 50 0 71 1;
#X connect 51 0 50 0;
#X connect 51 1 252 0;
#X connect 53 0 55 0;
#X connect 54 0 8 0;
#X connect 54 0 8 1;
#X connect 55 0 56 0;
#X connect 55 0 58 0;
#X connect 55 0 141 0;
#X connect 56 0 55 1;
#X connect 57 0 1 0;
#X connect 57 0 129 0;
#X connect 58 0 57 0;
#X connect 59 0 64 0;
#X connect 60 0 59 0;
#X connect 61 0 3 0;
#X connect 62 0 183 1;
#X connect 63 0 36 0;
#X connect 65 0 72 0;
#X connect 67 0 14 0;
#X connect 68 0 159 0;
#X connect 69 0 63 0;
#X connect 70 0 35 0;
#X connect 71 0 37 0;
#X connect 72 0 73 0;
#X connect 72 1 69 0;
#X connect 72 2 35 1;
#X connect 72 3 37 1;
#X connect 73 0 74 0;
#X connect 73 1 116 0;
#X connect 73 2 117 0;
#X connect 75 0 76 1;
#X connect 75 0 77 1;
#X connect 76 0 70 0;
#X connect 77 0 71 0;
#X connect 79 0 115 0;
#X connect 79 0 138 1;
#X connect 80 0 140 0;
#X connect 81 0 341 0;
#X connect 85 0 84 0;
#X connect 87 0 46 0;
#X connect 97 0 98 0;
#X connect 97 1 98 1;
#X connect 98 0 101 0;
#X connect 98 0 104 0;
#X connect 100 0 99 0;
#X connect 101 0 106 0;
#X connect 102 0 100 0;
#X connect 103 0 97 0;
#X connect 104 0 101 1;
#X connect 105 0 103 0;
#X connect 106 0 110 0;
#X connect 107 0 108 0;
#X connect 108 0 109 0;
#X connect 109 0 102 0;
#X connect 110 0 107 1;
#X connect 110 1 107 0;
#X connect 110 2 108 1;
#X connect 112 0 24 0;
#X connect 112 1 25 0;
#X connect 112 2 26 0;
#X connect 112 3 27 0;
#X connect 112 4 28 0;
#X connect 112 5 29 0;
#X connect 112 6 30 0;
#X connect 112 7 31 0;
#X connect 112 8 32 0;
#X connect 112 9 33 0;
#X connect 113 0 138 0;
#X connect 114 0 23 0;
#X connect 114 1 112 0;
#X connect 115 0 138 0;
#X connect 116 0 76 0;
#X connect 117 0 77 0;
#X connect 118 0 142 0;
#X connect 119 0 118 0;
#X connect 123 0 127 0;
#X connect 124 0 127 0;
#X connect 126 0 128 0;
#X connect 130 0 134 0;
#X connect 131 0 134 0;
#X connect 133 0 130 0;
#X connect 133 0 135 0;
#X connect 135 0 131 0;
#X connect 136 0 124 0;
#X connect 137 0 123 0;
#X connect 137 0 136 0;
#X connect 138 0 114 0;
#X connect 139 0 39 1;
#X connect 140 0 36 1;
#X connect 142 0 121 0;
#X connect 143 0 144 0;
#X connect 144 0 149 0;
#X connect 145 0 144 1;
#X connect 146 0 145 0;
#X connect 146 1 143 0;
#X connect 148 0 147 0;
#X connect 149 0 148 0;
#X connect 149 0 150 0;
#X connect 150 0 151 0;
#X connect 151 0 152 0;
#X connect 151 0 153 0;
#X connect 158 0 157 0;
#X connect 160 0 43 0;
#X connect 162 0 255 0;
#X connect 163 0 255 1;
#X connect 164 0 162 0;
#X connect 165 0 163 0;
#X connect 166 0 165 1;
#X connect 167 0 164 1;
#X connect 167 0 166 0;
#X connect 170 0 171 0;
#X connect 171 0 172 0;
#X connect 172 0 175 0;
#X connect 172 1 173 0;
#X connect 173 0 174 0;
#X connect 175 0 176 0;
#X connect 175 0 174 1;
#X connect 176 0 175 1;
#X connect 177 0 175 0;
#X connect 178 0 177 0;
#X connect 178 1 179 0;
#X connect 180 0 181 0;
#X connect 181 0 182 0;
#X connect 182 0 178 0;
#X connect 182 0 255 0;
#X connect 183 0 184 0;
#X connect 184 0 164 0;
#X connect 184 1 165 0;
#X connect 184 2 168 0;
#X connect 185 0 181 1;
#X connect 185 1 183 0;
#X connect 187 0 186 1;
#X connect 188 0 187 1;
#X connect 190 0 187 0;
#X connect 191 0 193 0;
#X connect 192 0 248 1;
#X connect 193 0 192 0;
#X connect 194 0 196 0;
#X connect 195 0 194 3;
#X connect 196 0 240 0;
#X connect 196 0 241 0;
#X connect 197 0 239 0;
#X connect 197 0 238 0;
#X connect 199 0 270 0;
#X connect 200 0 271 0;
#X connect 201 0 269 0;
#X connect 202 0 268 0;
#X connect 208 0 266 0;
#X connect 209 0 267 0;
#X connect 210 0 198 0;
#X connect 210 0 213 0;
#X connect 211 0 236 0;
#X connect 212 0 211 0;
#X connect 214 0 216 0;
#X connect 215 0 217 0;
#X connect 216 0 4 0;
#X connect 217 0 242 0;
#X connect 218 0 236 1;
#X connect 219 0 220 0;
#X connect 220 0 224 0;
#X connect 220 0 234 0;
#X connect 221 0 257 0;
#X connect 221 0 273 0;
#X connect 225 0 235 1;
#X connect 226 0 199 0;
#X connect 227 0 200 0;
#X connect 228 0 201 0;
#X connect 229 0 202 0;
#X connect 230 0 208 0;
#X connect 231 0 209 0;
#X connect 235 0 210 0;
#X connect 236 0 235 0;
#X connect 237 0 147 0;
#X connect 238 0 194 2;
#X connect 239 0 194 1;
#X connect 239 0 194 0;
#X connect 242 0 190 0;
#X connect 243 0 245 0;
#X connect 245 0 244 0;
#X connect 246 0 244 0;
#X connect 247 0 248 0;
#X connect 248 0 194 0;
#X connect 250 0 251 0;
#X connect 251 0 55 0;
#X connect 252 0 50 1;
#X connect 254 0 161 0;
#X connect 254 0 173 0;
#X connect 255 0 256 0;
#X connect 256 0 254 0;
#X connect 257 0 219 2;
#X connect 259 0 210 1;
#X connect 260 0 226 0;
#X connect 261 0 227 0;
#X connect 262 0 228 0;
#X connect 263 0 229 0;
#X connect 264 0 230 0;
#X connect 265 0 231 0;
#X connect 272 0 210 2;
#X connect 273 0 219 3;
#X connect 274 0 219 0;
#X connect 275 0 276 0;
#X connect 276 0 338 0;
#X connect 276 0 281 0;
#X connect 277 0 278 0;
#X connect 277 0 280 0;
#X connect 278 0 275 2;
#X connect 279 0 275 0;
#X connect 280 0 275 3;
#X connect 282 0 275 1;
#X connect 283 0 328 0;
#X connect 283 0 329 0;
#X connect 284 0 287 0;
#X connect 284 0 288 0;
#X connect 285 0 283 0;
#X connect 287 0 283 2;
#X connect 288 0 283 3;
#X connect 289 0 283 1;
#X connect 290 0 296 0;
#X connect 290 0 298 0;
#X connect 291 0 293 0;
#X connect 291 0 294 0;
#X connect 292 0 290 0;
#X connect 293 0 290 2;
#X connect 294 0 290 3;
#X connect 297 0 290 1;
#X connect 299 0 304 0;
#X connect 299 0 305 0;
#X connect 300 0 302 0;
#X connect 300 0 303 0;
#X connect 301 0 299 0;
#X connect 302 0 299 2;
#X connect 303 0 299 3;
#X connect 306 0 299 1;
#X connect 308 0 309 0;
#X connect 309 0 315 0;
#X connect 309 0 316 0;
#X connect 310 0 311 0;
#X connect 310 0 314 0;
#X connect 311 0 308 2;
#X connect 312 0 308 0;
#X connect 314 0 308 3;
#X connect 317 0 308 1;
#X connect 318 0 319 0;
#X connect 319 0 324 0;
#X connect 319 0 327 0;
#X connect 320 0 321 0;
#X connect 320 0 326 0;
#X connect 321 0 318 2;
#X connect 322 0 318 0;
#X connect 323 0 318 1;
#X connect 326 0 318 3;
#X connect 330 0 332 0;
#X connect 332 0 331 0;
#X connect 333 0 337 1;
#X connect 334 0 337 0;
#X connect 335 0 337 2;
#X connect 336 0 337 3;
#X connect 340 0 97 0;
#X connect 341 0 82 0;
#X connect 342 0 219 1;
#X coords 0 0 5 1 0 0 0;
