#N canvas -8 -8 1280 637 12;
#X obj 182 444 f;
#X obj 159 410 t f b f;
#X floatatom 159 365 5 0 0 0 - - -;
#X obj 205 476 max;
#X floatatom 238 476 5 0 0 0 - - -;
#X obj 159 387 max;
#X msg 239 363 0;
#X obj 239 387 t f f;
#X text 331 338 reset;
#X obj 127 340 t f f;
#X obj 127 563 /;
#X obj 127 614 outlet;
#X text 89 6 value;
#X obj 178 34 inlet;
#X text 156 7 minimum;
#X obj 265 34 inlet;
#X text 243 7 maximum;
#X text 267 503 prevent div by 0;
#X obj 205 503 max 0.1;
#X text 363 591 * 1 to force float;
#X obj 178 60 s \$0-minlim;
#X obj 237 544 r \$0-maxlim;
#X obj 348 543 r \$0-minlim;
#X obj 127 314 change;
#X text 307 291 downsample;
#X obj 127 289 expr int($f1 * 100) / 100;
#X obj 127 589 expr $f1 * 1 * ($f2 - $f3) + $f3;
#X floatatom 362 567 5 0 0 0 - - -;
#X floatatom 247 568 5 0 0 0 - - -;
#X obj 265 60 s \$0-maxlim;
#X obj 127 264 line;
#X obj 271 96 loadbang;
#X obj 194 180 snapshot~;
#X obj 91 59 s~ \$0-val;
#X obj 195 96 r~ \$0-val;
#X obj 91 33 inlet~;
#X obj 271 120 metro 10;
#X obj 271 146 t b b;
#X msg 303 180 100;
#X obj 127 216 switch;
#X text 22 7 value;
#X obj 24 34 inlet;
#X obj 24 60 s \$0-man;
#X obj 127 96 r \$0-man;
#X obj 239 338 r reset_cal;
#X connect 0 0 3 1;
#X connect 1 0 0 1;
#X connect 1 1 0 0;
#X connect 1 2 3 0;
#X connect 2 0 5 0;
#X connect 3 0 4 0;
#X connect 3 0 18 0;
#X connect 4 0 5 1;
#X connect 5 0 1 0;
#X connect 6 0 7 0;
#X connect 7 0 3 0;
#X connect 7 1 0 0;
#X connect 9 0 10 0;
#X connect 9 1 2 0;
#X connect 10 0 26 0;
#X connect 13 0 20 0;
#X connect 15 0 29 0;
#X connect 18 0 10 1;
#X connect 21 0 26 1;
#X connect 21 0 28 0;
#X connect 22 0 26 2;
#X connect 22 0 27 0;
#X connect 23 0 9 0;
#X connect 25 0 23 0;
#X connect 26 0 11 0;
#X connect 30 0 25 0;
#X connect 31 0 36 0;
#X connect 32 0 39 1;
#X connect 34 0 32 0;
#X connect 35 0 33 0;
#X connect 36 0 37 0;
#X connect 37 0 32 0;
#X connect 37 1 38 0;
#X connect 38 0 30 1;
#X connect 39 0 30 0;
#X connect 41 0 42 0;
#X connect 43 0 39 0;
#X connect 44 0 6 0;
