#N canvas -8 -8 1280 637 12;
#X obj 82 408 select 0;
#X obj 177 369 select 1;
#X obj 269 330 select 2;
#X obj 364 292 select 3;
#X obj 456 250 select 4;
#X obj 546 211 select 5;
#X obj 641 171 select 6;
#X obj 736 127 select 7;
#X obj 82 475 s bela_digitalOut17;
#X obj 177 436 s bela_digitalOut18;
#X obj 269 397 s bela_digitalOut21;
#X obj 364 358 s bela_digitalOut13;
#X obj 456 319 s bela_digitalOut14;
#X obj 546 277 s bela_digitalOut11;
#X obj 641 238 s bela_digitalOut12;
#X obj 736 199 s bela_digitalOut15;
#X obj 985 199 s bela_digitalOut16;
#X obj 1129 199 s bela_digitalOut19;
#X obj 152 9 inlet;
#X obj 152 57 % 8;
#X obj 985 57 div 8;
#X obj 985 99 sel 0;
#X obj 1058 99 sel 1;
#X obj 1158 99 sel 2;
#X obj 1236 99 sel 3;
#X obj 225 475 outlet;
#X obj 504 358 outlet;
#X obj 409 397 outlet;
#X obj 317 436 outlet;
#X obj 688 277 outlet;
#X obj 597 319 outlet;
#X obj 782 238 outlet;
#X obj 878 199 outlet;
#X obj 931 199 outlet;
#X obj 1273 199 outlet;
#X msg 82 436 0;
#X msg 135 436 1;
#X msg 177 397 0;
#X msg 230 397 1;
#X msg 269 358 0;
#X msg 322 358 1;
#X msg 364 319 0;
#X msg 417 319 1;
#X msg 456 277 0;
#X msg 509 277 1;
#X msg 546 238 0;
#X msg 599 238 1;
#X msg 641 199 0;
#X msg 694 199 1;
#X msg 736 155 0;
#X msg 789 155 1;
#X msg 985 128 1;
#X msg 1058 128 1;
#X msg 1095 128 0;
#X msg 1158 128 0;
#X msg 1195 128 1;
#X msg 1236 128 0;
#X connect 0 0 35 0;
#X connect 0 1 36 0;
#X connect 1 0 37 0;
#X connect 1 1 38 0;
#X connect 2 0 39 0;
#X connect 2 1 40 0;
#X connect 3 0 41 0;
#X connect 3 1 42 0;
#X connect 4 0 43 0;
#X connect 4 1 44 0;
#X connect 5 0 45 0;
#X connect 5 1 46 0;
#X connect 6 0 47 0;
#X connect 6 1 48 0;
#X connect 7 0 49 0;
#X connect 7 1 50 0;
#X connect 18 0 19 0;
#X connect 18 0 20 0;
#X connect 19 0 0 0;
#X connect 19 0 1 0;
#X connect 19 0 2 0;
#X connect 19 0 3 0;
#X connect 19 0 4 0;
#X connect 19 0 5 0;
#X connect 19 0 6 0;
#X connect 19 0 7 0;
#X connect 20 0 21 0;
#X connect 20 0 22 0;
#X connect 20 0 23 0;
#X connect 20 0 24 0;
#X connect 21 0 51 0;
#X connect 22 0 52 0;
#X connect 22 0 53 0;
#X connect 23 0 54 0;
#X connect 23 0 55 0;
#X connect 24 0 56 0;
#X connect 35 0 8 0;
#X connect 35 0 25 0;
#X connect 36 0 8 0;
#X connect 36 0 25 0;
#X connect 37 0 9 0;
#X connect 37 0 28 0;
#X connect 38 0 9 0;
#X connect 38 0 28 0;
#X connect 39 0 10 0;
#X connect 39 0 27 0;
#X connect 40 0 10 0;
#X connect 40 0 27 0;
#X connect 41 0 11 0;
#X connect 41 0 26 0;
#X connect 42 0 11 0;
#X connect 42 0 26 0;
#X connect 43 0 12 0;
#X connect 43 0 30 0;
#X connect 44 0 12 0;
#X connect 44 0 30 0;
#X connect 45 0 13 0;
#X connect 45 0 29 0;
#X connect 46 0 13 0;
#X connect 46 0 29 0;
#X connect 47 0 14 0;
#X connect 47 0 31 0;
#X connect 48 0 14 0;
#X connect 48 0 31 0;
#X connect 49 0 15 0;
#X connect 49 0 32 0;
#X connect 50 0 15 0;
#X connect 50 0 32 0;
#X connect 51 0 16 0;
#X connect 51 0 17 0;
#X connect 51 0 33 0;
#X connect 51 0 34 0;
#X connect 52 0 16 0;
#X connect 52 0 33 0;
#X connect 53 0 17 0;
#X connect 53 0 34 0;
#X connect 54 0 16 0;
#X connect 54 0 33 0;
#X connect 55 0 17 0;
#X connect 55 0 34 0;
#X connect 56 0 16 0;
#X connect 56 0 17 0;
#X connect 56 0 33 0;
#X connect 56 0 34 0;
