#N canvas 563 88 436 384 10;
#X floatatom 37 310 5 0 0 0 - - -;
#X floatatom 37 122 5 0 0 0 - - -;
#X msg 110 163 0 2 4 5 7 9 11;
#X msg 110 184 0 2 3 5 7 8 10;
#X msg 110 205 0 4 7;
#X msg 110 226 0 3 7;
#X floatatom 77 143 5 0 11 0 - - -;
#X text 77 121 Input;
#X text 117 142 Root;
#X text 217 163 Major scale;
#X text 217 184 Minor scale;
#X text 217 205 Major triad;
#X text 217 226 Minor triad;
#X text 87 310 Output;
#X msg 110 247 0 2 4 7 9;
#X text 217 247 Major pentatonic scale;
#X msg 110 268 0 3 5 7 10;
#X text 217 268 Minor pentatonic scale;
#X text 35 65 Transposes any incoming note \, given as midi pitch value
\, to a given scale based on a given root.;
#X obj 37 289 mscale;
#X obj 37 37 mscale;
#X connect 1 0 19 0;
#X connect 2 0 19 2;
#X connect 3 0 19 2;
#X connect 4 0 19 2;
#X connect 5 0 19 2;
#X connect 6 0 19 1;
#X connect 14 0 19 2;
#X connect 16 0 19 2;
#X connect 19 0 0 0;
