#N canvas 186 329 479 265 10;
#X obj 33 69 inlet;
#X obj 210 149 f;
#X obj 240 149 + 1;
#X obj 183 69 inlet;
#X msg 225 129 0;
#X obj 183 199 tabwrite \$0-numbers;
#X obj 183 219 table \$0-numbers;
#X obj 33 139 tabread \$0-numbers;
#X obj 183 109 list-drip;
#X obj 313 106 list length;
#X msg 313 146 resize \$1;
#X obj 313 166 s \$0-numbers;
#X obj 393 143 s \$0-range;
#X obj 33 159 outlet;
#X obj 66 99 r \$0-range;
#X text 70 68 bang;
#X text 220 68 list of numbers;
#X obj 183 89 t l b l;
#X obj 183 129 t f b;
#X obj 313 126 t f f;
#X obj 33 119 random;
#X text 32 11 generates random numbers picking from the list provided
at the second inlet.;
#X connect 0 0 20 0;
#X connect 1 0 2 0;
#X connect 1 0 5 1;
#X connect 2 0 1 1;
#X connect 3 0 17 0;
#X connect 4 0 1 1;
#X connect 7 0 13 0;
#X connect 8 0 18 0;
#X connect 9 0 19 0;
#X connect 10 0 11 0;
#X connect 14 0 20 1;
#X connect 17 0 8 0;
#X connect 17 1 4 0;
#X connect 17 2 9 0;
#X connect 18 0 5 0;
#X connect 18 1 1 0;
#X connect 19 0 10 0;
#X connect 19 1 12 0;
#X connect 20 0 7 0;
