#N canvas 291 149 450 300 12;
#X obj 29 149 spigot 0;
#X obj 168 149 spigot 0;
#X msg 106 117 1;
#X msg 74 117 0;
#X msg 245 117 1;
#X msg 213 117 0;
#X obj 88 20 r manual;
#X obj 29 20 inlet;
#X obj 168 20 inlet;
#X obj 29 176 outlet;
#X obj 88 81 sel 1;
#X obj 131 81 sel 0;
#X connect 0 0 9 0;
#X connect 1 0 9 0;
#X connect 2 0 0 1;
#X connect 3 0 0 1;
#X connect 4 0 1 1;
#X connect 5 0 1 1;
#X connect 6 0 10 0;
#X connect 6 0 11 0;
#X connect 7 0 0 0;
#X connect 8 0 1 0;
#X connect 10 0 2 0;
#X connect 10 1 3 0;
#X connect 11 0 4 0;
#X connect 11 1 5 0;
